<svg id="Ebene_1" data-name="Ebene 1" xmlns="http://www.w3.org/2000/svg" viewBox="0 0 255.1 318.1">
  <title>Logo_RGB</title>
  <rect x="99.2" width="56.7" height="255.1" fill="#7bcadb"/>
  <rect y="99.2" width="255.1" height="56.7" fill="#7bcadb"/>
  <path d="M194.9,185.1s4,0,4-4V160.7s0-4-4-4h-6.1s-4,0-4-4v-6.2s0-4-4-4h-7.2a2.9,2.9,0,0,1-3-3V134s0-5.7-5.7-5.7H103.8s-4,0-4-4v-7.2a2.9,2.9,0,0,0-3-3H91.3s-5.7,0-5.7-5.7V75.7s0-4,4-4h7.2a2.9,2.9,0,0,0,3-3V63.2s0-5.7,5.6-5.7h45.4s5.7,0,5.7-5.7V33.2s0-4-4-4h-6.2s-4,0-4,4v6.2s0,4-4,4h-6.2s-4,0-4-4V33.2s0-4-4-4h-6.2s-4,0-4,4v6.2s0,4-4,4h-6.1s-4,0-4-4V32.2a2.9,2.9,0,0,0-3-3H91.3s-5.7,0-5.7,5.7V53.6s0,4-4,4H74.4a2.9,2.9,0,0,0-3,3v5.5s0,5.7-5.7,5.7h-17s-5.7,0-5.7,5.7V97.1a2.9,2.9,0,0,0,3,3h5.5s5.7,0,5.7,5.7v48a2.9,2.9,0,0,0,3,3h5.5s5.7,0,5.7,5.7v62.3a2.9,2.9,0,0,0,3,3h5.5s5.7,0,5.7-5.7V202.4a2.9,2.9,0,0,1,3-3h5.5s5.7,0,5.7-5.7v-17s0-5.7,5.6-5.7h19.7a2.9,2.9,0,0,1,3,3v5.5s0,5.7,5.7,5.7h18.7s4,0,4,4v7.2a2.9,2.9,0,0,0,3,3H165s5.7,0,5.7,5.7v19.7a2.9,2.9,0,0,0,3,3h5.5s5.7,0,5.7-5.7V190.9s0-5.7,5.7-5.7h4.3Z" transform="translate(-0.6 -0.8)" fill="#7c6e66"/>
  <g>
    <path d="M41.4,287.6l-1-4.7H35.1L34,287.6H30.3L35.9,267h4l5.5,20.6Zm-6-22.5a1.5,1.5,0,0,1-1.5-1.7,1.7,1.7,0,0,1,1.5-1.7,1.7,1.7,0,0,1,1.6,1.7A1.5,1.5,0,0,1,35.4,265.1Zm2.8,8.5a9.1,9.1,0,0,1-.5-2.7h-.1a17.6,17.6,0,0,1-.5,2.7l-1.6,6.8h4Zm2-8.5a1.5,1.5,0,0,1-1.5-1.7,1.7,1.7,0,0,1,1.5-1.7,1.6,1.6,0,0,1,1.6,1.7A1.5,1.5,0,0,1,40.2,265.1Z" transform="translate(-0.6 -0.8)" fill="#7c6e66"/>
    <path d="M55.9,287.6l-2-5.5a7.9,7.9,0,0,0-2.4-3.6v9.1h-4V267.9a11.3,11.3,0,0,1,5.2-1.1c4.2,0,6.8,2.1,6.8,6.1a5.6,5.6,0,0,1-4,5.4h0a11.9,11.9,0,0,1,2.4,3.6l2.5,5.8H55.9Zm-3.1-18.2-1.4.2v6.9h1c2,0,3.1-1.5,3.1-3.8S54.8,269.4,52.8,269.4Z" transform="translate(-0.6 -0.8)" fill="#7c6e66"/>
    <path d="M62,287.6l5.7-17.5H62.5V267H72.6l-5.4,17.6h5.5v3.2H62Z" transform="translate(-0.6 -0.8)" fill="#7c6e66"/>
    <path d="M81.9,270.1v17.6h-4V270.1H74.8V267H85.2v3.1Z" transform="translate(-0.6 -0.8)" fill="#7c6e66"/>
    <path d="M87.5,287.6V267h8.9v3.1H91.5v5.7h4.4v3H91.5v6h4.9v3.1H87.5Z" transform="translate(-0.6 -0.8)" fill="#7c6e66"/>
    <path d="M108,287.6v-9h-4.6v9h-4V267h4v8.6H108V267h4.1v20.6Z" transform="translate(-0.6 -0.8)" fill="#7c6e66"/>
    <path d="M125.3,287.6l-1-4.7h-5.4l-1.1,4.7h-3.7l5.7-20.6h4.1l5.5,20.6Zm-3.2-14c-.2-.9-.3-1.9-.5-2.7h-.1a17.6,17.6,0,0,1-.5,2.7l-1.6,6.8h4Z" transform="translate(-0.6 -0.8)" fill="#7c6e66"/>
    <path d="M137.1,288c-3.5,0-6.1-2.2-6.1-6.2V267h4v15c0,1.5.8,2.6,2.3,2.6s2.3-1,2.3-2.6V267h3.8v14.9A5.9,5.9,0,0,1,137.1,288Z" transform="translate(-0.6 -0.8)" fill="#7c6e66"/>
    <path d="M150.3,288a9.3,9.3,0,0,1-4.7-1.2l1-3a5.4,5.4,0,0,0,2.9.7,2.5,2.5,0,0,0,2.6-2.5c0-4-6.3-3.4-6.3-9.7a5.5,5.5,0,0,1,5.8-5.7,6.8,6.8,0,0,1,4.2,1.3l-.9,2.6a4.9,4.9,0,0,0-2.5-.7,2.4,2.4,0,0,0-2.5,2.3c0,4,6.4,3.4,6.4,9.8A5.7,5.7,0,0,1,150.3,288Z" transform="translate(-0.6 -0.8)" fill="#7c6e66"/>
  </g>
  <g>
    <path d="M41.4,318.6l-1-4.7H35.1L34,318.6H30.3L35.9,298h4l5.5,20.6Zm-3.2-14a9.1,9.1,0,0,1-.5-2.7h-.1a17.6,17.6,0,0,1-.5,2.7l-1.6,6.8h4Z" transform="translate(-0.6 -0.8)" fill="#7c6e66"/>
    <path d="M61.8,318.6l-.9-12.3V304h-.1c-.1.3-.2,1.2-.5,2.3l-3.1,12.2h-2l-3.1-12.2c-.2-.9-.5-2-.5-2.3h-.1c0,.4,0,1.2-.1,2.3l-.8,12.2H47.1l1.8-20.6h3.8l3.1,11.8c.3,1.2.4,2.2.5,2.6h.1c.1-.3.2-1.4.5-2.6L60,297.9h3.8l1.8,20.6H61.8Z" transform="translate(-0.6 -0.8)" fill="#7c6e66"/>
    <path d="M83.9,318.6v-9H79.4v9h-4V298h4v8.6h4.5V298h4v20.6Z" transform="translate(-0.6 -0.8)" fill="#7c6e66"/>
    <path d="M91.5,318.6V298h4v20.6Z" transform="translate(-0.6 -0.8)" fill="#7c6e66"/>
    <path d="M107.6,318.6l-2.1-5.5c-.5-1.3-1.1-2.9-2.3-3.6v9.1h-4V298.8a11,11,0,0,1,5.2-1.1c4.2,0,6.8,2.1,6.8,6.1a5.6,5.6,0,0,1-4,5.4h0a11.1,11.1,0,0,1,2.3,3.6l2.5,5.8h-4.4Zm-3.2-18.2-1.3.2v6.9h1c1.9,0,3.1-1.5,3.1-3.8S106.4,300.4,104.4,300.4Z" transform="translate(-0.6 -0.8)" fill="#7c6e66"/>
    <path d="M118.4,318.9a8.1,8.1,0,0,1-4.6-1.3l1-3a5.5,5.5,0,0,0,2.9.8,2.5,2.5,0,0,0,2.6-2.5c0-4-6.3-3.4-6.3-9.8a5.5,5.5,0,0,1,5.8-5.6,6.5,6.5,0,0,1,4.1,1.3l-.8,2.6a5.3,5.3,0,0,0-2.5-.8,2.5,2.5,0,0,0-2.5,2.4c0,4,6.4,3.4,6.4,9.8C124.4,316.6,122.1,318.9,118.4,318.9Z" transform="translate(-0.6 -0.8)" fill="#7c6e66"/>
    <path d="M133.6,318.9c-4.8,0-7-5.3-7-10.6s2.2-10.7,7-10.7a5.5,5.5,0,0,1,3.8,1.3l-.8,2.7a4.1,4.1,0,0,0-2.2-.7c-2.6,0-3.6,3.5-3.6,7.4s1,7.3,3.6,7.3a3.1,3.1,0,0,0,2.2-.7l.8,2.8A5.6,5.6,0,0,1,133.6,318.9Z" transform="translate(-0.6 -0.8)" fill="#7c6e66"/>
    <path d="M148.3,318.6v-9h-4.6v9h-4V298h4v8.6h4.6V298h4v20.6Z" transform="translate(-0.6 -0.8)" fill="#7c6e66"/>
    <path d="M163.1,318.9c-5.5,0-7.8-4.6-7.8-10.8s2.8-10.6,8.3-10.6a7.1,7.1,0,0,1,4.3,1.3l-1.1,2.7a6.2,6.2,0,0,0-2.9-.7c-3.1,0-4.6,3.2-4.6,7.3s1,7.4,3.5,7.4l1.4-.2v-6.2h-2.1v-2.7H168v11.1C167.1,318.5,165.3,318.9,163.1,318.9Z" transform="translate(-0.6 -0.8)" fill="#7c6e66"/>
    <path d="M181.3,318.6l-1-4.7h-5.4l-1.1,4.7H170l5.6-20.6h4.2l5.5,20.6Zm-3.2-14c-.2-.9-.3-1.9-.5-2.7h-.1c-.1.7-.2,1.7-.4,2.7l-1.6,6.8h4Z" transform="translate(-0.6 -0.8)" fill="#7c6e66"/>
    <path d="M195.9,318.6l-2.1-5.5c-.5-1.3-1.2-2.9-2.3-3.6v9.1h-4V298.8a11,11,0,0,1,5.2-1.1c4.2,0,6.8,2.1,6.8,6.1a5.6,5.6,0,0,1-4,5.4h0a11.1,11.1,0,0,1,2.3,3.6l2.5,5.8h-4.4Zm-3.1-18.2-1.3.2v6.9h1c1.9,0,3.1-1.5,3.1-3.8S194.8,300.4,192.8,300.4Z" transform="translate(-0.6 -0.8)" fill="#7c6e66"/>
    <path d="M208.8,301.1v17.6h-4V301.1h-3.2V298H212v3.1Z" transform="translate(-0.6 -0.8)" fill="#7c6e66"/>
    <path d="M214.4,318.6V298h8.9v3.1h-4.9v5.6h4.4v3h-4.4v6h4.9v3.1h-8.9Z" transform="translate(-0.6 -0.8)" fill="#7c6e66"/>
    <path d="M236.4,318.6l-5.8-12.1a8.6,8.6,0,0,1-.8-2.2h-.2a20.8,20.8,0,0,1,.2,2.2v12.1h-3.4V298H230l5.3,10.8,1,2.1h.1c0-.3-.1-1.3-.1-2.3V297.9h3.4v20.6h-3.3Z" transform="translate(-0.6 -0.8)" fill="#7c6e66"/>
  </g>
</svg>
